<svg data-v-6805eed4="" version="1.0" xmlns="http://www.w3.org/2000/svg" xmlns:xlink="http://www.w3.org/1999/xlink" width="100%" height="100%" viewBox="0 0 340.000000 250.000000" preserveAspectRatio="xMidYMid meet" color-interpolation-filters="sRGB" style="margin: auto;"> <rect data-v-6805eed4="" x="0" y="0" width="100%" height="100%" fill="#ffffff" fill-opacity="1" class="background"></rect> <rect data-v-6805eed4="" x="0" y="0" width="100%" height="100%" fill="url(#watermark)" fill-opacity="1" class="watermarklayer"></rect> <g data-v-6805eed4="" fill="#333333" class="icon-text-wrapper icon-svg-group iconsvg" transform="translate(48.88999938964844,57.8032531738292)"><g class="iconsvg-imagesvg" transform="translate(91.11000061035156,0)"><g><rect fill="#333333" fill-opacity="0" stroke-width="2" x="0" y="0" width="60" height="58.693483066930135" class="image-rect"></rect> <svg x="0" y="0" width="60" height="58.693483066930135" filtersec="colorsb1369214286" class="image-svg-svg primary" style="overflow: visible;"><svg xmlns="http://www.w3.org/2000/svg" viewBox="-0.003750394331291318 0.000027662646971293725 101.97000885009766 99.7500228881836"><path d="M95.33 72a22.25 22.25 0 0 1-44.5 0 22.26 22.26 0 0 0-22.25-22.29 22.25 22.25 0 1 1 22.25-22.25 22.25 22.25 0 0 0 22.25 22.25A22.26 22.26 0 0 1 95.33 72z" fill="#333333"></path><path d="M64 38a22.25 22.25 0 1 1 15.75 6.5A22.14 22.14 0 0 1 64 38z" fill="#147dc8"></path><path d="M6.51 93.23a22.25 22.25 0 1 1 15.74 6.52 22.14 22.14 0 0 1-15.74-6.52z" fill="#333333"></path></svg></svg> <!----></g></g> <g transform="translate(0,65.6934814453125)"><g data-gra="path-name" fill-rule="" class="tp-name iconsvg-namesvg" transform="translate(0,0)"><g transform="scale(1)"><g><path d="M30.11-12.09L30.11-43.23Q30.11-45.99 33.5-45.99L33.5-45.99Q36.9-45.99 36.9-43.23L36.9-43.23 36.9-3.51Q36.9-1.5 34.77-0.58L34.77-0.58 34.83-0.58Q33.9-0.17 32.87 0.06 31.83 0.29 30.85 0.29L30.85 0.29Q30.11 0.29 29.3 0.14 28.49 0 27.77-0.32 27.05-0.63 26.45-1.18 25.85-1.73 25.5-2.53L25.5-2.53 13.01-33.67 11.46-33.5 11.46-2.42Q11.46 0.35 8 0.35L8 0.35Q4.61 0.35 4.61-2.42L4.61-2.42 4.61-42.08Q4.61-44.44 6.68-45.24L6.68-45.24Q8.58-45.99 10.71-45.99L10.71-45.99Q12.2-45.99 13.73-45.39 15.25-44.78 16.06-43.11L16.06-43.11 28.49-11.92 30.11-12.09ZM51.29-25.5L51.29-9.21Q51.29-7.83 52.18-6.62 53.07-5.41 55.2-5.41L55.2-5.41 62.4-5.41Q64.53-5.41 65.42-6.48 66.31-7.54 66.31-8.92L66.31-8.92 66.31-9.56Q66.31-12.26 69.48-12.26L69.48-12.26Q72.64-12.26 72.64-9.56L72.64-9.56 72.64-8.86Q72.64-6.45 71.87-4.89 71.09-3.34 69.54-2.19L69.54-2.19Q66.49 0 63.43 0L63.43 0 53.76 0Q50.71 0 47.83-2.19L47.83-2.19Q46.45-3.34 45.71-5.09 44.96-6.85 44.96-9.15L44.96-9.15 44.96-25.56Q44.96-30.22 47.83-32.47L47.83-32.47Q49.27-33.5 50.8-34.11 52.32-34.71 53.76-34.71L53.76-34.71 63.43-34.71Q64.82-34.71 66.49-34.16 68.15-33.62 69.59-32.7L69.59-32.7Q70.98-31.72 71.81-29.99 72.64-28.26 72.64-25.9L72.64-25.9 72.64-18.13Q72.64-16.81 71.87-15.77 71.09-14.74 69.02-14.74L69.02-14.74 56.58-14.74Q54.51-14.74 54.4-17.44L54.4-17.44Q54.4-20.15 56.58-20.15L56.58-20.15 66.37-20.15 66.31-25.5Q66.31-26.94 65.42-28.12 64.53-29.3 62.4-29.3L62.4-29.3 55.2-29.3Q53.07-29.3 52.18-28.12 51.29-26.94 51.29-25.5L51.29-25.5ZM92.27-29.24L87.5-29.24 87.5-8.29Q87.5-6.79 88.13-5.99 88.76-5.18 90.83-5.18L90.83-5.18 92.33-5.18Q94.58-5.18 94.46-2.53L94.46-2.53Q94.46 0.17 92.33 0.17L92.33 0.17 90.43 0.17Q88.59 0.17 86.98-0.32 85.37-0.81 83.87-1.73L83.87-1.73 83.87-1.67Q81.05-3.51 81.05-8.23L81.05-8.23 81.05-29.24 78.8-29.24Q76.73-29.24 76.62-31.95L76.62-31.95Q76.62-34.65 78.8-34.65L78.8-34.65 81.05-34.65 81.05-40.81Q81.05-43.58 84.33-43.58L84.33-43.58Q87.5-43.58 87.5-40.81L87.5-40.81 87.5-34.65 92.27-34.65Q94.52-34.65 94.4-31.95L94.4-31.95Q94.4-29.24 92.27-29.24L92.27-29.24ZM117.95 0L111.1 0Q109.02 0 108.91-2.71L108.91-2.71Q108.91-5.41 111.1-5.41L111.1-5.41 116.91-5.41Q119.04-5.41 119.93-6.62 120.83-7.83 120.83-9.21L120.83-9.21 120.83-25.44Q120.83-26.88 119.93-28.12 119.04-29.36 116.85-29.24L116.85-29.24 105.8-29.24 105.8 5.35Q105.8 8.06 102.64 8.06L102.64 8.06Q99.47 8.06 99.47 5.3L99.47 5.3 99.47-31.26Q99.47-33.27 100.51-33.96 101.54-34.65 103.04-34.65L103.04-34.65 117.95-34.65Q119.44-34.65 120.97-34.13 122.49-33.62 124.11-32.7L124.11-32.7Q125.49-31.72 126.32-29.96 127.16-28.21 127.16-25.85L127.16-25.85 127.16-8.81Q127.16-4.09 124.11-2.07L124.11-2.07Q120.88 0 117.95 0L117.95 0ZM162.04-32.24L162.04-9.15Q162.04-6.85 161.23-5.07 160.43-3.28 158.93-2.19L158.93-2.19 158.99-2.19Q157.55-1.21 155.94-0.6 154.33 0 152.83 0L152.83 0 143.56 0Q142.12 0 140.48-0.6 138.84-1.21 137.4-2.19L137.4-2.19 137.46-2.19Q135.96-3.28 135.16-5.07 134.35-6.85 134.35-9.15L134.35-9.15 134.35-32.24Q134.35-35 137.52-35L137.52-35Q140.68-35 140.68-32.24L140.68-32.24 140.68-9.61Q140.68-8 141.49-6.79L141.49-6.79Q142.24-5.41 144.6-5.41L144.6-5.41 151.79-5.41Q154.1-5.41 154.84-6.79L154.84-6.79 154.79-6.73Q155.71-8.12 155.71-9.61L155.71-9.61 155.71-32.24Q155.71-35 158.87-35L158.87-35Q162.04-35 162.04-32.24L162.04-32.24ZM175.8-43.52L175.8-2.24Q175.8 0.46 172.63 0.46L172.63 0.46Q169.41 0.46 169.41-2.24L169.41-2.24 169.41-43.52Q169.41-46.22 172.63-46.22L172.63-46.22Q175.8-46.22 175.8-43.52L175.8-43.52ZM193.99-20.15L202.45-20.15Q203.89-20.15 205.53-19.49 207.17-18.82 208.61-17.84L208.61-17.84 208.55-17.84Q210.05-16.75 210.85-15.02 211.66-13.3 211.66-10.88L211.66-10.88 211.66-9.15Q211.66-4.43 208.55-2.19L208.55-2.19Q207.05-1.04 205.5-0.52 203.95 0 202.45 0L202.45 0 192.66 0Q191.17 0 189.61-0.52 188.06-1.04 186.56-2.19L186.56-2.19Q183.45-4.37 183.45-9.15L183.45-9.15 183.45-9.84Q183.45-12.32 186.62-12.26L186.62-12.26Q189.84-12.26 189.84-9.84L189.84-9.84 189.84-9.21Q189.84-7.83 190.71-6.62 191.57-5.41 193.76-5.41L193.76-5.41 201.36-5.41Q203.54-5.41 204.41-6.62 205.27-7.83 205.27-9.21L205.27-9.21 205.27-10.82Q205.27-11.57 205.07-12.26 204.87-12.95 204.41-13.5 203.95-14.05 203.2-14.39 202.45-14.74 201.36-14.74L201.36-14.74 192.95-14.74Q190.02-14.74 186.79-16.81L186.79-16.81Q183.74-18.77 183.74-23.54L183.74-23.54 183.74-25.5Q183.74-27.8 184.55-29.56 185.35-31.31 186.85-32.41L186.85-32.41 186.79-32.41Q188.23-33.39 189.84-34.02 191.46-34.65 192.95-34.65L192.95-34.65 202.16-34.65Q203.66-34.65 205.24-34.02 206.82-33.39 208.32-32.41L208.32-32.41 208.26-32.41Q209.76-31.31 210.57-29.56 211.37-27.8 211.37-25.5L211.37-25.5 211.37-24.98Q211.37-23.77 210.57-23.23 209.76-22.68 208.21-22.62L208.21-22.62Q205.04-22.56 205.04-24.98L205.04-24.98 205.04-25.44Q205.04-26.88 204.15-28.06 203.26-29.24 201.13-29.24L201.13-29.24 193.99-29.24Q191.86-29.24 190.97-28.06 190.07-26.88 190.07-25.44L190.07-25.44 190.07-24.06Q190.07-22.56 190.97-21.36 191.86-20.15 193.99-20.15L193.99-20.15ZM225.47-25.5L225.47-9.21Q225.47-7.83 226.37-6.62 227.26-5.41 229.39-5.41L229.39-5.41 236.58-5.41Q238.71-5.41 239.61-6.48 240.5-7.54 240.5-8.92L240.5-8.92 240.5-9.56Q240.5-12.26 243.66-12.26L243.66-12.26Q246.83-12.26 246.83-9.56L246.83-9.56 246.83-8.86Q246.83-6.45 246.05-4.89 245.28-3.34 243.72-2.19L243.72-2.19Q240.67 0 237.62 0L237.62 0 227.95 0Q224.9 0 222.02-2.19L222.02-2.19Q220.64-3.34 219.89-5.09 219.14-6.85 219.14-9.15L219.14-9.15 219.14-25.56Q219.14-30.22 222.02-32.47L222.02-32.47Q223.46-33.5 224.99-34.11 226.51-34.71 227.95-34.71L227.95-34.71 237.62-34.71Q239-34.71 240.67-34.16 242.34-33.62 243.78-32.7L243.78-32.7Q245.16-31.72 246-29.99 246.83-28.26 246.83-25.9L246.83-25.9 246.83-18.13Q246.83-16.81 246.05-15.77 245.28-14.74 243.2-14.74L243.2-14.74 230.77-14.74Q228.7-14.74 228.58-17.44L228.58-17.44Q228.58-20.15 230.77-20.15L230.77-20.15 240.56-20.15 240.5-25.5Q240.5-26.94 239.61-28.12 238.71-29.3 236.58-29.3L236.58-29.3 229.39-29.3Q227.26-29.3 226.37-28.12 225.47-26.94 225.47-25.5L225.47-25.5Z" transform="translate(-4.610000133514404, 46.220001220703125)"></path></g> <!----> <!----> <!----> <!----> <!----> <!----> <!----></g></g> <g data-gra="path-slogan" fill-rule="" class="tp-slogan iconsvg-slogansvg" fill="#147DC8" transform="translate(5,60.28000259399414)"><rect x="0" height="1" y="3.7100000381469727" width="45.090003967285156"></rect> <rect height="1" y="3.7100000381469727" width="45.090003967285156" x="187.12999725341797"></rect> <g transform="translate(48.090003967285156,0)"><g transform="scale(1)"><path d="M1.08 0L1.08-7.87L2.08-7.87L2.08-0.85L5.52-0.85L5.52 0L1.08 0ZM6.91 0L6.91-7.87L11.45-7.87L11.45-7.03L7.91-7.03L7.91-4.56L10.90-4.56L10.90-3.71L7.91-3.71L7.91-0.85L11.57-0.85L11.57 0L6.91 0ZM14.87 0L14.87-7.03L12.49-7.03L12.49-7.87L18.25-7.87L18.25-7.03L15.88-7.03L15.88 0L14.87 0ZM19.78-5.17L19.58-7.18L19.55-8.28L20.60-8.28L20.57-7.18L20.38-5.17L19.78-5.17ZM22.08-1.02L22.68-1.72Q23.10-1.27 23.67-1.00Q24.24-0.73 24.85-0.73L24.85-0.73Q25.63-0.73 26.06-1.09Q26.50-1.44 26.50-2.02L26.50-2.02Q26.50-2.32 26.39-2.53Q26.29-2.74 26.12-2.89Q25.94-3.04 25.70-3.16Q25.46-3.28 25.19-3.41L25.19-3.41L24.06-3.90Q23.78-4.02 23.50-4.19Q23.21-4.36 22.98-4.60Q22.75-4.84 22.61-5.17Q22.46-5.50 22.46-5.93L22.46-5.93Q22.46-6.37 22.65-6.76Q22.84-7.14 23.17-7.42Q23.50-7.70 23.95-7.86Q24.40-8.02 24.94-8.02L24.94-8.02Q25.64-8.02 26.24-7.75Q26.84-7.48 27.26-7.04L27.26-7.04L26.72-6.40Q26.36-6.74 25.93-6.94Q25.49-7.14 24.94-7.14L24.94-7.14Q24.28-7.14 23.87-6.83Q23.47-6.53 23.47-5.99L23.47-5.99Q23.47-5.70 23.59-5.50Q23.70-5.30 23.89-5.15Q24.08-5.00 24.31-4.89Q24.54-4.78 24.78-4.68L24.78-4.68L25.90-4.20Q26.23-4.06 26.53-3.87Q26.83-3.68 27.05-3.44Q27.26-3.19 27.39-2.86Q27.52-2.53 27.52-2.10L27.52-2.10Q27.52-1.63 27.33-1.22Q27.14-0.82 26.80-0.51Q26.45-0.20 25.96-0.03Q25.46 0.14 24.84 0.14L24.84 0.14Q24.01 0.14 23.30-0.17Q22.60-0.48 22.08-1.02L22.08-1.02ZM31.49 0L31.49-7.87L32.66-7.87L34.19-3.65L34.76-2.04L34.81-2.04L35.36-3.65L36.88-7.87L38.05-7.87L38.05 0L37.10 0L37.10-4.33Q37.10-4.86 37.15-5.50Q37.19-6.13 37.24-6.66L37.24-6.66L37.19-6.66L36.55-4.91L35.04-0.79L34.48-0.79L32.95-4.91L32.33-6.66L32.28-6.66Q32.32-6.13 32.36-5.50Q32.41-4.86 32.41-4.33L32.41-4.33L32.41 0L31.49 0ZM41.20-3.20L43.56-3.20L43.19-4.40Q42.97-5.06 42.78-5.72Q42.59-6.37 42.40-7.06L42.40-7.06L42.35-7.06Q42.17-6.37 41.98-5.72Q41.78-5.06 41.57-4.40L41.57-4.40L41.20-3.20ZM44.56 0L43.81-2.40L40.94-2.40L40.19 0L39.17 0L41.83-7.87L42.96-7.87L45.62 0L44.56 0ZM46.74 0L46.74-7.87L47.74-7.87L47.74-3.92L47.77-3.92L51.05-7.87L52.18-7.87L49.72-4.87L52.56 0L51.44 0L49.09-4.09L47.74-2.50L47.74 0L46.74 0ZM53.69 0L53.69-7.87L58.22-7.87L58.22-7.03L54.68-7.03L54.68-4.56L57.67-4.56L57.67-3.71L54.68-3.71L54.68-0.85L58.34-0.85L58.34 0L53.69 0ZM61.86-1.02L62.46-1.72Q62.88-1.27 63.45-1.00Q64.02-0.73 64.63-0.73L64.63-0.73Q65.41-0.73 65.84-1.09Q66.28-1.44 66.28-2.02L66.28-2.02Q66.28-2.32 66.17-2.53Q66.07-2.74 65.90-2.89Q65.72-3.04 65.48-3.16Q65.24-3.28 64.97-3.41L64.97-3.41L63.84-3.90Q63.56-4.02 63.28-4.19Q62.99-4.36 62.76-4.60Q62.53-4.84 62.39-5.17Q62.24-5.50 62.24-5.93L62.24-5.93Q62.24-6.37 62.43-6.76Q62.62-7.14 62.95-7.42Q63.28-7.70 63.73-7.86Q64.18-8.02 64.72-8.02L64.72-8.02Q65.42-8.02 66.02-7.75Q66.62-7.48 67.04-7.04L67.04-7.04L66.50-6.40Q66.14-6.74 65.71-6.94Q65.27-7.14 64.72-7.14L64.72-7.14Q64.06-7.14 63.65-6.83Q63.25-6.53 63.25-5.99L63.25-5.99Q63.25-5.70 63.37-5.50Q63.48-5.30 63.67-5.15Q63.86-5.00 64.09-4.89Q64.32-4.78 64.56-4.68L64.56-4.68L65.68-4.20Q66.01-4.06 66.31-3.87Q66.61-3.68 66.83-3.44Q67.04-3.19 67.17-2.86Q67.30-2.53 67.30-2.10L67.30-2.10Q67.30-1.63 67.11-1.22Q66.92-0.82 66.58-0.51Q66.23-0.20 65.74-0.03Q65.24 0.14 64.62 0.14L64.62 0.14Q63.79 0.14 63.08-0.17Q62.38-0.48 61.86-1.02L61.86-1.02ZM68.84 0L68.84-7.87L70.02-7.87L71.54-3.65L72.12-2.04L72.17-2.04L72.72-3.65L74.23-7.87L75.41-7.87L75.41 0L74.46 0L74.46-4.33Q74.46-4.86 74.50-5.50Q74.54-6.13 74.59-6.66L74.59-6.66L74.54-6.66L73.91-4.91L72.40-0.79L71.83-0.79L70.31-4.91L69.68-6.66L69.64-6.66Q69.67-6.13 69.72-5.50Q69.77-4.86 69.77-4.33L69.77-4.33L69.77 0L68.84 0ZM78.55-3.20L80.92-3.20L80.54-4.40Q80.33-5.06 80.14-5.72Q79.94-6.37 79.75-7.06L79.75-7.06L79.70-7.06Q79.52-6.37 79.33-5.72Q79.14-5.06 78.92-4.40L78.92-4.40L78.55-3.20ZM81.91 0L81.17-2.40L78.30-2.40L77.54 0L76.52 0L79.19-7.87L80.32-7.87L82.98 0L81.91 0ZM85.09-7.07L85.09-4.14L86.41-4.14Q87.34-4.14 87.83-4.52Q88.32-4.90 88.32-5.66L88.32-5.66Q88.32-6.44 87.83-6.76Q87.34-7.07 86.41-7.07L86.41-7.07L85.09-7.07ZM89.54 0L88.42 0L86.52-3.32L85.09-3.32L85.09 0L84.10 0L84.10-7.87L86.56-7.87Q87.16-7.87 87.67-7.76Q88.18-7.64 88.54-7.38Q88.91-7.12 89.11-6.70Q89.32-6.28 89.32-5.66L89.32-5.66Q89.32-4.74 88.84-4.19Q88.36-3.64 87.55-3.43L87.55-3.43L89.54 0ZM92.46 0L92.46-7.03L90.08-7.03L90.08-7.87L95.84-7.87L95.84-7.03L93.47-7.03L93.47 0L92.46 0ZM101.32 0L101.32-7.03L98.94-7.03L98.94-7.87L104.70-7.87L104.70-7.03L102.32-7.03L102.32 0L101.32 0ZM106.12 0L106.12-7.87L107.11-7.87L107.11-4.57L110.77-4.57L110.77-7.87L111.78-7.87L111.78 0L110.77 0L110.77-3.71L107.11-3.71L107.11 0L106.12 0ZM113.94 0L113.94-7.87L114.94-7.87L114.94 0L113.94 0ZM117.10 0L117.10-7.87L118.13-7.87L120.97-2.93L121.82-1.30L121.87-1.30Q121.84-1.90 121.79-2.54Q121.75-3.18 121.75-3.80L121.75-3.80L121.75-7.87L122.70-7.87L122.70 0L121.67 0L118.81-4.96L117.96-6.58L117.91-6.58Q117.96-5.98 118.00-5.36Q118.04-4.74 118.04-4.12L118.04-4.12L118.04 0L117.10 0ZM124.40-3.94L124.40-3.94Q124.40-4.88 124.67-5.64Q124.94-6.40 125.43-6.92Q125.92-7.45 126.58-7.73Q127.24-8.02 128.03-8.02L128.03-8.02Q128.84-8.02 129.39-7.71Q129.94-7.40 130.28-7.04L130.28-7.04L129.72-6.41Q129.42-6.72 129.03-6.93Q128.64-7.14 128.04-7.14L128.04-7.14Q127.44-7.14 126.96-6.92Q126.48-6.70 126.14-6.28Q125.81-5.87 125.62-5.28Q125.44-4.69 125.44-3.96L125.44-3.96Q125.44-3.22 125.61-2.62Q125.78-2.03 126.11-1.61Q126.44-1.19 126.93-0.96Q127.42-0.73 128.05-0.73L128.05-0.73Q128.47-0.73 128.85-0.86Q129.23-0.98 129.47-1.20L129.47-1.20L129.47-3.25L127.80-3.25L127.80-4.08L130.38-4.08L130.38-0.77Q130.00-0.37 129.37-0.11Q128.74 0.14 127.94 0.14L127.94 0.14Q127.16 0.14 126.52-0.13Q125.87-0.41 125.40-0.93Q124.93-1.45 124.67-2.21Q124.40-2.98 124.40-3.94ZM131.69-1.02L132.29-1.72Q132.71-1.27 133.28-1.00Q133.85-0.73 134.46-0.73L134.46-0.73Q135.24-0.73 135.67-1.09Q136.10-1.44 136.10-2.02L136.10-2.02Q136.10-2.32 136.00-2.53Q135.90-2.74 135.73-2.89Q135.55-3.04 135.31-3.16Q135.07-3.28 134.80-3.41L134.80-3.41L133.67-3.90Q133.39-4.02 133.10-4.19Q132.82-4.36 132.59-4.60Q132.36-4.84 132.22-5.17Q132.07-5.50 132.07-5.93L132.07-5.93Q132.07-6.37 132.26-6.76Q132.44-7.14 132.77-7.42Q133.10-7.70 133.55-7.86Q134.00-8.02 134.54-8.02L134.54-8.02Q135.25-8.02 135.85-7.75Q136.45-7.48 136.87-7.04L136.87-7.04L136.33-6.40Q135.97-6.74 135.53-6.94Q135.10-7.14 134.54-7.14L134.54-7.14Q133.88-7.14 133.48-6.83Q133.08-6.53 133.08-5.99L133.08-5.99Q133.08-5.70 133.19-5.50Q133.31-5.30 133.50-5.15Q133.69-5.00 133.92-4.89Q134.15-4.78 134.39-4.68L134.39-4.68L135.50-4.20Q135.84-4.06 136.14-3.87Q136.44-3.68 136.66-3.44Q136.87-3.19 137.00-2.86Q137.12-2.53 137.12-2.10L137.12-2.10Q137.12-1.63 136.94-1.22Q136.75-0.82 136.40-0.51Q136.06-0.20 135.56-0.03Q135.07 0.14 134.45 0.14L134.45 0.14Q133.62 0.14 132.91-0.17Q132.20-0.48 131.69-1.02L131.69-1.02Z" transform="translate(-1.08, 8.28)"></path></g></g></g></g></g><defs v-gra="od"></defs></svg>