<svg xmlns="http://www.w3.org/2000/svg" xmlns:xlink="http://www.w3.org/1999/xlink" data-v-6805eed4="" version="1.0" width="100%" height="100%" viewBox="0 0 340.000000 250.000000" preserveAspectRatio="xMidYMid meet" color-interpolation-filters="sRGB" style="margin: auto;"> <rect data-v-6805eed4="" x="0" y="0" width="100%" height="100%" fill="#ffffff" fill-opacity="1" class="background"/> <rect data-v-6805eed4="" x="0" y="0" width="100%" height="100%" fill="url(#watermark)" fill-opacity="1" class="watermarklayer"/> <g data-v-6805eed4="" fill="#333333" class="icon-text-wrapper icon-svg-group iconsvg" transform="translate(48.88999938964844,57.8032531738292)"><g class="iconsvg-imagesvg" transform="translate(91.11000061035156,0)"><g><rect fill="#333333" fill-opacity="0" stroke-width="2" x="0" y="0" width="60" height="58.693483066930135" class="image-rect"/> <svg x="0" y="0" width="60" height="58.693483066930135" filtersec="colorsb1369214286" class="image-svg-svg primary" style="overflow: visible;"><svg xmlns="http://www.w3.org/2000/svg" viewBox="-0.003750394331291318 0.000027662646971293725 101.97000885009766 99.7500228881836"><path d="M95.33 72a22.25 22.25 0 0 1-44.5 0 22.26 22.26 0 0 0-22.25-22.29 22.25 22.25 0 1 1 22.25-22.25 22.25 22.25 0 0 0 22.25 22.25A22.26 22.26 0 0 1 95.33 72z" fill="#333333"/><path d="M64 38a22.25 22.25 0 1 1 15.75 6.5A22.14 22.14 0 0 1 64 38z" fill="#147dc8"/><path d="M6.51 93.23a22.25 22.25 0 1 1 15.74 6.52 22.14 22.14 0 0 1-15.74-6.52z" fill="#333333"/></svg></svg> <!----></g></g> </g><defs v-gra="od"/></svg>